<svg width="80" height="67" viewBox="0 0 80 67" fill="none" xmlns="http://www.w3.org/2000/svg">
<path d="M46.5941 47.5037L35.8503 35.0455L40 35.0455C40.8652 35.0455 41.6594 34.6512 42.0669 34.0201C42.4744 33.3889 42.4284 32.6232 41.9502 32.028L31.8794 19.5186L35.3125 19.5186C36.2006 19.5186 37.0108 19.1035 37.4091 18.4458C37.805 17.7881 37.7203 17.0015 37.187 16.414L25.4683 0.757775C24.5849 -0.220284 22.6027 -0.220284 21.7192 0.757775L10.0005 16.414C9.4672 17.0015 9.38251 17.7881 9.77845 18.4458C10.1767 19.1035 10.9869 19.5186 11.875 19.5186L15.3083 19.5186L5.23751 32.028C4.75907 32.6232 4.71345 33.3889 5.12079 34.0201C5.52813 34.6512 6.32235 35.0455 7.18766 35.0455L11.3374 35.0455L0.437352 47.5037C-0.0732732 48.095 -0.141867 48.874 0.260946 49.5203C0.661414 50.1667 1.46485 50.5723 2.34376 50.5723L44.6875 50.5723C45.5664 50.5723 46.3699 50.1667 46.7703 49.5203C47.1731 48.874 47.1045 48.095 46.5941 47.5037Z" fill="white"/>
<path d="M77.6563 62.3443L61.0938 62.3443L61.0938 54.4515L51.7188 54.4515L51.7188 62.3443L28.2813 62.3443L28.2812 54.4515L18.9062 54.4515L18.9063 62.3443L2.34375 62.3443C1.04828 62.3443 2.02597e-09 63.2123 2.27405e-09 64.2851C2.52214e-09 65.3579 1.04828 66.226 2.34375 66.226L77.6563 66.226C78.9517 66.226 80 65.3579 80 64.2851C80 63.2123 78.9517 62.3443 77.6563 62.3443Z" fill="white"/>
<path d="M79.5628 47.5024L68.6628 35.0442L72.8125 35.0442C73.6777 35.0445 74.4719 34.6502 74.8794 34.019C75.2867 33.3879 75.2409 32.6221 74.7626 32.027L64.6919 19.5175L68.125 19.5175C69.0131 19.5175 69.8233 19.1024 70.2216 18.4447C70.6175 17.7871 70.5328 17.0005 69.9995 16.4129L58.2808 0.756738C57.3973 -0.221322 55.4152 -0.221322 54.5317 0.756738L42.813 16.4129C42.2797 17.0005 42.195 17.7871 42.5909 18.4447C42.9892 19.1024 43.7994 19.5175 44.6875 19.5175L48.1208 19.5175L42.8167 26.1061L45.8503 29.8738C47.29 31.6649 47.425 33.9545 46.2005 35.848C45.6717 36.6687 44.9278 37.3529 44.0444 37.8684L50.4095 45.247C51.7631 46.8166 52.0175 48.7894 51.2464 50.571L77.6562 50.571C78.5352 50.571 79.3386 50.1654 79.7391 49.5191C80.1419 48.8728 80.0733 48.0937 79.5628 47.5024Z" fill="white"/>
</svg>
